# xmcd CD database file
#
# Track frame offsets:
#	182
#	12630
#	35370
#	50765
#	74920
#	94320
#	111010
#	136515
#	149325
#	167975
#	182655
#	202655
#
# Disc length: 2977 seconds
#
# Revision: 2
# Processed by: cddbd v1.5PL3 Copyright (c) Steve Scherf et al.
# Submitted via: CDex 1.51
#
DISCID=ae0b9f0c
DTITLE=Harmonica Fats and Bernie Pearl - Blow, Fat Daddy, Blow!
DYEAR=1996
DGENRE=Blues
TTITLE0=Blow, Fat Daddy, Blow!
TTITLE1=She's Way Out of My Class
TTITLE2=Looking for My Tools
TTITLE3=Blues for Mrs. B.
TTITLE4=House Going 'Round and 'Round
TTITLE5=Westside Boogie
TTITLE6=Why Should I Holler?
TTITLE7=I Get So Tired
TTITLE8=Helicopter Blues
TTITLE9=You got Your Mind ion the Gutter
TTITLE10=The Funky Pony
TTITLE11=Blues Kaddish
EXTD=YEAR: 1996
EXTT0=
EXTT1=
EXTT2=
EXTT3=
EXTT4=
EXTT5=
EXTT6=
EXTT7=
EXTT8=
EXTT9=
EXTT10=
EXTT11=
PLAYORDER=
